<svg width="40" height="40" viewBox="0 0 40 40" fill="none" xmlns="http://www.w3.org/2000/svg">
<rect x="0.5" y="0.5" width="39" height="39" rx="19.5" fill="#F5F2FF"/>
<rect x="0.5" y="0.5" width="39" height="39" rx="19.5" stroke="#E4E1EE"/>
<path d="M16.9087 26.8759C23.1978 26.8759 26.6378 21.6651 26.6378 17.1467C26.6378 16.9984 26.6378 16.8509 26.6278 16.7051C27.2971 16.2205 27.8748 15.6206 28.3337 14.9334C27.7095 15.2101 27.0475 15.3915 26.3695 15.4717C27.0834 15.0443 27.6176 14.372 27.8728 13.5801C27.2017 13.9783 26.4676 14.259 25.702 14.4101C24.6421 13.2823 22.9574 13.0061 21.5929 13.7365C20.2285 14.4668 19.5239 16.0219 19.8745 17.5292C17.1251 17.3915 14.5634 16.0929 12.827 13.9567C11.9195 15.519 12.3829 17.5175 13.8853 18.5209C13.3414 18.5052 12.8092 18.3588 12.3337 18.0942V18.1376C12.3343 19.7652 13.4817 21.1669 15.077 21.4892C14.5735 21.6265 14.0452 21.6465 13.5328 21.5476C13.9807 22.9408 15.2647 23.8952 16.7278 23.9226C15.2958 25.0478 13.4751 25.5574 11.667 25.3392C13.2308 26.3429 15.0505 26.8752 16.9087 26.8726V26.8759Z" fill="#464555"/>
</svg>
