<svg width="300" height="168" viewBox="0 0 300 168" fill="none" xmlns="http://www.w3.org/2000/svg">
<rect width="300" height="168" fill="#785656"/>
<path d="M54.588 90V78.16H57.052V82.88H61.66V78.16H64.124V90H61.66V85.024H57.052V90H54.588ZM67.1547 76.992L65.3947 74.096H67.6507L68.9467 76.976L67.1547 76.992ZM66.7707 90V78.16H69.2347V90H66.7707ZM71.8724 90V78.16H74.1284L79.2324 85.712V78.16H81.6804V90H79.3924L74.3204 82.656V90H71.8724ZM84.2568 90V78.16H86.7208V82.88H91.3288V78.16H93.7928V90H91.3288V85.024H86.7208V90H84.2568ZM104.847 77.168V76.64C104.847 76.5013 104.874 76.3733 104.927 76.256C104.991 76.128 105.098 76.032 105.247 75.968L105.487 75.84C105.711 75.7227 105.882 75.6107 105.999 75.504C106.116 75.3867 106.175 75.248 106.175 75.088C106.175 74.9493 106.122 74.8267 106.015 74.72C105.919 74.6133 105.775 74.56 105.583 74.56C105.391 74.56 105.247 74.608 105.151 74.704C105.066 74.8 105.012 74.9013 104.991 75.008C104.97 75.1147 104.959 75.1787 104.959 75.2H103.567C103.556 74.912 103.615 74.6293 103.743 74.352C103.882 74.064 104.1 73.824 104.399 73.632C104.698 73.44 105.087 73.344 105.567 73.344C106.207 73.344 106.714 73.5147 107.087 73.856C107.46 74.1867 107.647 74.576 107.647 75.024C107.647 75.408 107.519 75.7333 107.263 76C107.018 76.256 106.703 76.48 106.319 76.672L106.239 76.72V77.168H104.847ZM99.855 90L103.887 78.16H107.167L111.199 90H108.607L107.839 87.68H103.215L102.447 90H99.855ZM103.887 85.536H107.167L105.535 80.592L103.887 85.536ZM113.16 90V78.16H115.416L120.52 85.712V78.16H122.968V90H120.68L115.608 82.656V90H113.16ZM125.544 90V78.16H128.008V82.88H132.616V78.16H135.08V90H132.616V85.024H128.008V90H125.544ZM147.286 90.16C146.305 90.16 145.441 89.9893 144.694 89.648C143.948 89.296 143.318 88.832 142.806 88.256C142.305 87.6693 141.926 87.0133 141.67 86.288C141.425 85.5627 141.302 84.8213 141.302 84.064C141.302 83.3067 141.425 82.5707 141.67 81.856C141.926 81.1307 142.305 80.48 142.806 79.904C143.318 79.328 143.948 78.8693 144.694 78.528C145.441 78.176 146.305 78 147.286 78C148.278 78 149.148 78.176 149.894 78.528C150.641 78.8693 151.265 79.328 151.766 79.904C152.268 80.48 152.641 81.1307 152.886 81.856C153.142 82.5707 153.27 83.3067 153.27 84.064C153.27 84.8 153.153 85.5253 152.918 86.24C152.684 86.9547 152.326 87.5947 151.846 88.16L153.494 90H150.87L150.342 89.408C149.916 89.6427 149.446 89.8293 148.934 89.968C148.433 90.096 147.884 90.16 147.286 90.16ZM147.286 87.936C147.809 87.936 148.284 87.8347 148.71 87.632L146.902 85.648L148.438 84.368L150.15 86.272C150.524 85.6213 150.71 84.8853 150.71 84.064C150.71 83.4133 150.582 82.7947 150.326 82.208C150.07 81.6213 149.686 81.1413 149.174 80.768C148.662 80.3947 148.033 80.208 147.286 80.208C146.54 80.208 145.91 80.3947 145.398 80.768C144.897 81.1413 144.518 81.6213 144.262 82.208C144.006 82.7947 143.878 83.4133 143.878 84.064C143.878 84.7147 144.006 85.3387 144.262 85.936C144.518 86.5227 144.897 87.0027 145.398 87.376C145.91 87.7493 146.54 87.936 147.286 87.936ZM160.185 90.16C159.321 90.16 158.521 89.9947 157.785 89.664C157.06 89.3333 156.473 88.8213 156.025 88.128C155.588 87.4347 155.369 86.5333 155.369 85.424V78.16H157.833V85.424C157.833 86.1067 158.025 86.6827 158.409 87.152C158.793 87.6107 159.385 87.84 160.185 87.84C160.985 87.84 161.572 87.6107 161.945 87.152C162.329 86.6827 162.521 86.1067 162.521 85.424V78.16H165.001V85.424C165.001 86.5333 164.777 87.4347 164.329 88.128C163.892 88.8213 163.305 89.3333 162.569 89.664C161.833 89.9947 161.039 90.16 160.185 90.16ZM171.575 77.168V76.64C171.575 76.5013 171.602 76.3733 171.655 76.256C171.719 76.128 171.826 76.032 171.975 75.968L172.215 75.84C172.439 75.7227 172.61 75.6107 172.727 75.504C172.844 75.3867 172.903 75.248 172.903 75.088C172.903 74.9493 172.85 74.8267 172.743 74.72C172.647 74.6133 172.503 74.56 172.311 74.56C172.119 74.56 171.975 74.608 171.879 74.704C171.794 74.8 171.74 74.9013 171.719 75.008C171.698 75.1147 171.687 75.1787 171.687 75.2H170.295C170.284 74.912 170.343 74.6293 170.471 74.352C170.61 74.064 170.828 73.824 171.127 73.632C171.426 73.44 171.815 73.344 172.295 73.344C172.935 73.344 173.442 73.5147 173.815 73.856C174.188 74.1867 174.375 74.576 174.375 75.024C174.375 75.408 174.247 75.7333 173.991 76C173.746 76.256 173.431 76.48 173.047 76.672L172.967 76.72V77.168H171.575ZM166.583 90L170.615 78.16H173.895L177.927 90H175.335L174.567 87.68H169.943L169.175 90H166.583ZM170.615 85.536H173.895L172.263 80.592L170.615 85.536ZM179.888 90V78.16H182.144L187.248 85.712V78.16H189.696V90H187.408L182.336 82.656V90H179.888ZM197.776 90.16C196.784 90.16 195.915 89.9893 195.168 89.648C194.422 89.3067 193.798 88.848 193.296 88.272C192.806 87.6853 192.438 87.0347 192.192 86.32C191.947 85.5947 191.824 84.8533 191.824 84.096C191.824 83.3387 191.947 82.5973 192.192 81.872C192.448 81.1467 192.822 80.496 193.312 79.92C193.814 79.3333 194.443 78.8693 195.2 78.528C195.958 78.176 196.843 78 197.856 78C198.646 78 199.323 78.1013 199.888 78.304C200.464 78.496 200.944 78.752 201.328 79.072C201.712 79.3813 202.016 79.712 202.24 80.064C202.475 80.416 202.651 80.752 202.768 81.072C202.896 81.3813 202.976 81.6373 203.008 81.84C203.051 82.032 203.072 82.128 203.072 82.128H200.624C200.624 82.128 200.592 82.032 200.528 81.84C200.464 81.648 200.336 81.424 200.144 81.168C199.952 80.9013 199.67 80.672 199.296 80.48C198.934 80.2773 198.454 80.176 197.856 80.176C197.078 80.176 196.427 80.368 195.904 80.752C195.392 81.1253 195.003 81.6107 194.736 82.208C194.48 82.7947 194.352 83.408 194.352 84.048C194.352 84.7093 194.486 85.344 194.752 85.952C195.019 86.5493 195.408 87.04 195.92 87.424C196.443 87.7973 197.094 87.984 197.872 87.984C198.726 87.984 199.398 87.7653 199.888 87.328C200.39 86.8907 200.688 86.2987 200.784 85.552H197.712V83.616H203.216V84.528C203.216 85.7653 202.976 86.8053 202.496 87.648C202.027 88.48 201.382 89.1093 200.56 89.536C199.75 89.952 198.822 90.16 197.776 90.16ZM214.825 90.16C213.843 90.16 212.985 89.9893 212.249 89.648C211.523 89.296 210.915 88.832 210.424 88.256C209.934 87.6693 209.566 87.0133 209.321 86.288C209.075 85.5627 208.953 84.8213 208.953 84.064C208.953 83.3173 209.075 82.5813 209.321 81.856C209.566 81.1307 209.934 80.48 210.424 79.904C210.915 79.3173 211.523 78.8533 212.249 78.512C212.985 78.1707 213.843 78 214.825 78C215.646 78 216.345 78.1067 216.921 78.32C217.507 78.5227 217.993 78.7893 218.377 79.12C218.771 79.44 219.086 79.7867 219.321 80.16C219.566 80.5227 219.747 80.8693 219.865 81.2C219.982 81.52 220.057 81.7867 220.089 82C220.131 82.2027 220.153 82.304 220.153 82.304H217.705C217.705 82.304 217.683 82.2347 217.641 82.096C217.609 81.9467 217.539 81.7707 217.433 81.568C217.326 81.3547 217.166 81.1467 216.953 80.944C216.75 80.7413 216.473 80.5707 216.121 80.432C215.779 80.2827 215.353 80.208 214.841 80.208C214.105 80.208 213.486 80.4 212.985 80.784C212.494 81.1573 212.121 81.6373 211.865 82.224C211.619 82.8107 211.497 83.424 211.497 84.064C211.497 84.704 211.619 85.3227 211.865 85.92C212.121 86.5067 212.494 86.992 212.985 87.376C213.486 87.7493 214.105 87.936 214.841 87.936C215.353 87.936 215.779 87.8667 216.121 87.728C216.473 87.5893 216.75 87.4187 216.953 87.216C217.166 87.0027 217.326 86.7947 217.433 86.592C217.539 86.3787 217.609 86.2027 217.641 86.064C217.683 85.9253 217.705 85.856 217.705 85.856H220.153C220.153 85.856 220.131 85.9627 220.089 86.176C220.057 86.3787 219.982 86.6453 219.865 86.976C219.747 87.296 219.566 87.6427 219.321 88.016C219.086 88.3787 218.771 88.7253 218.377 89.056C217.993 89.376 217.507 89.6427 216.921 89.856C216.345 90.0587 215.646 90.16 214.825 90.16ZM227.628 76.992L225.82 76.976L227.116 74.096H229.372L227.628 76.992ZM221.036 90L225.068 78.16H228.348L232.38 90H229.788L229.02 87.68H224.396L223.628 90H221.036ZM225.068 85.536H228.348L226.716 80.592L225.068 85.536ZM239.33 90.16C238.349 90.16 237.485 89.9893 236.738 89.648C235.992 89.296 235.362 88.832 234.85 88.256C234.349 87.6693 233.97 87.0133 233.714 86.288C233.469 85.5627 233.346 84.8213 233.346 84.064C233.346 83.3067 233.469 82.5707 233.714 81.856C233.97 81.1307 234.349 80.48 234.85 79.904C235.362 79.328 235.992 78.8693 236.738 78.528C237.485 78.176 238.349 78 239.33 78C240.322 78 241.192 78.176 241.938 78.528C242.685 78.8693 243.309 79.328 243.81 79.904C244.312 80.48 244.685 81.1307 244.93 81.856C245.186 82.5707 245.314 83.3067 245.314 84.064C245.314 84.8213 245.186 85.5627 244.93 86.288C244.685 87.0133 244.312 87.6693 243.81 88.256C243.309 88.832 242.685 89.296 241.938 89.648C241.192 89.9893 240.322 90.16 239.33 90.16ZM239.33 87.936C240.077 87.936 240.706 87.7493 241.218 87.376C241.73 87.0027 242.114 86.5227 242.37 85.936C242.626 85.3387 242.754 84.7147 242.754 84.064C242.754 83.4133 242.626 82.7947 242.37 82.208C242.114 81.6213 241.73 81.1413 241.218 80.768C240.706 80.3947 240.077 80.208 239.33 80.208C238.584 80.208 237.954 80.3947 237.442 80.768C236.941 81.1413 236.562 81.6213 236.306 82.208C236.05 82.7947 235.922 83.4133 235.922 84.064C235.922 84.7147 236.05 85.3387 236.306 85.936C236.562 86.5227 236.941 87.0027 237.442 87.376C237.954 87.7493 238.584 87.936 239.33 87.936Z" fill="white"/>
</svg>
